<svg xmlns="http://www.w3.org/2000/svg" width="1400" height="420" viewBox="0 0 1400 420" role="img" aria-label="ResearchMind AI project banner placeholder">
  <defs>
    <linearGradient id="bg" x1="0" y1="0" x2="1" y2="1">
      <stop offset="0" stop-color="#0b1020"/>
      <stop offset="0.55" stop-color="#111827"/>
      <stop offset="1" stop-color="#134e4a"/>
    </linearGradient>
  </defs>
  <rect width="1400" height="420" fill="url(#bg)"/>
  <g opacity="0.2" stroke="#14b8a6" stroke-width="2">
    <path d="M80 320C230 130 390 370 540 170S850 80 1030 240s250 40 310-70"/>
    <path d="M60 250C260 70 420 300 590 130s370-90 520 70 210 70 290-10"/>
  </g>
  <rect x="860" y="72" width="360" height="276" rx="18" fill="#0f172a" stroke="#334155"/>
  <circle cx="930" cy="142" r="28" fill="#14b8a6"/>
  <circle cx="1050" cy="142" r="28" fill="#f59e0b"/>
  <circle cx="1170" cy="142" r="28" fill="#60a5fa"/>
  <path d="M930 170v70h240v-70" fill="none" stroke="#64748b" stroke-width="8" stroke-linecap="round" stroke-linejoin="round"/>
  <text x="100" y="160" font-family="Arial, sans-serif" font-size="58" font-weight="800" fill="#f8fafc">ResearchMind AI</text>
  <text x="104" y="220" font-family="Arial, sans-serif" font-size="28" fill="#cbd5e1">Autonomous Multi-Agent Research Assistant</text>
  <text x="104" y="274" font-family="Arial, sans-serif" font-size="22" fill="#5eead4">LangGraph • FastAPI • Gemini • ChromaDB • React</text>
</svg>
